<?xml version="1.0" standalone="no"?>
<!DOCTYPE svg PUBLIC "-//W3C//DTD SVG 1.1//EN" "http://www.w3.org/Graphics/SVG/1.1/DTD/svg11.dtd" >
<!--
2013-9-30: Created.
-->
<svg>
<metadata>
Created by iconfont
</metadata>
<defs>

<font id="iconfont" horiz-adv-x="1024" >
  <font-face
    font-family="iconfont"
    font-weight="500"
    font-stretch="normal"
    units-per-em="1024"
    ascent="896"
    descent="-128"
  />
    <missing-glyph />
    
    <glyph glyph-name="zuanshi" unicode="&#58901;" d="M297.897 458.634c142.687 0 284.291 0 426.795 0-39.526-99.464-78.874-198.49-118.227-297.512 0.427-0.204 0.853-0.405 1.281-0.607 5.183 10.404 10.402 20.797 15.544 31.225 2.211 4.491 4.208 9.086 6.406 13.587 17.044 34.929 34.141 69.825 51.157 104.764 13.624 27.969 27.186 55.969 40.717 83.984 9.086 18.816 17.977 37.722 27.204 56.469 1.149 2.336 3.475 4.552 5.805 5.786 28.78 15.24 57.605 30.387 86.532 45.35 24.482 12.663 49.134 25 73.657 37.582 19.323 9.913 38.558 19.985 57.838 29.978 1.438 0.742 2.917 1.405 4.375 2.103 0.438-0.404 0.875-0.806 1.316-1.209-153.097-202.831-306.192-405.664-460.185-609.686-166.394 203.468-332.355 406.409-498.316 609.353 0.409 0.509 0.82 1.016 1.229 1.523 7.88-3.413 15.774-6.791 23.636-10.242 32.467-14.257 64.95-28.482 97.382-42.822 27.287-12.065 54.486-24.328 81.774-36.392 12.006-5.308 24.19-10.22 36.16-15.606 2.019-0.909 3.891-3.050 4.937-5.079 14.172-27.5 28.157-55.096 42.243-82.638 16.843-32.931 33.71-65.848 50.621-98.744 15.092-29.359 30.257-58.677 45.39-88.016 15.486-30.029 30.971-60.060 47.639-89.568-50.863 118.549-101.722 237.101-152.911 356.417zM833.564 703.189c-4.071-1.808-8.199-3.493-12.195-5.444-22.009-10.751-43.974-21.596-65.983-32.35-11.996-5.861-23.711-12.519-36.176-17.142-11.433-4.24-23.669-6.355-35.616-9.136-3.848-0.894-7.9-1.298-11.854-1.301-104.947-0.068-209.895-0.139-314.841 0.114-8.036 0.021-16.149 2.073-24.076 3.843-10.152 2.265-20.438 4.437-30.141 8.054-10.297 3.838-20.187 8.937-29.881 14.175-15.611 8.434-30.898 17.466-46.354 26.189-11.912 6.722-23.874 13.361-36.859 20.622 18.113 6.582 35.025 12.767 51.967 18.878 23.098 8.328 46.207 16.622 69.344 24.849 1.727 0.614 3.688 0.8 5.54 0.802 130.756 0.035 261.511 0.106 392.269-0.21 5.688-0.014 11.479-3.313 17.028-5.565 21.235-8.617 42.414-17.383 63.57-26.195 14.617-6.088 29.169-12.343 43.748-18.523 0.169-0.551 0.339-1.106 0.51-1.661zM737.255 484.523c-140.456 0-280.354 0-421.668 0 1.938 6.482 3.706 12.475 5.52 18.456 10.738 35.432 21.546 70.84 32.146 106.313 1.22 4.085 3.719 4.224 7.086 4.22 58.661-0.057 117.321-0.040 175.984-0.040 45.436 0 90.872-0.114 136.306 0.16 5.069 0.031 7.566-1.601 9.451-5.909 12.947-29.562 25.94-59.104 39.061-88.589 5.064-11.381 10.506-22.597 16.113-34.612zM333.992 610.432c-15.461-41.875-30.778-83.354-46.175-125.056-85.68 35.75-170.77 71.256-257.417 107.41 8.55 6.414 15.979 12.015 23.439 17.57 23.472 17.487 46.962 34.944 70.429 52.433 13.749 10.247 27.368 20.673 41.324 30.629 1.807 1.291 5.776 1.217 7.911 0.135 17.725-8.985 35.197-18.467 52.854-27.583 21.692-11.199 43.5-22.169 65.237-33.279 13.008-6.65 25.98-13.367 38.951-20.084 1.257-0.651 2.402-1.509 3.446-2.175zM976.061 592.511c-70.139-35.979-139.545-71.582-209.709-107.574-3.462 7.482-6.597 14.612-10.024 21.602-10.857 22.161-21.864 44.254-32.731 66.41-6.614 13.478-12.992 27.068-19.666 40.515-1.67 3.368-1.263 4.996 2.226 6.896 29.159 15.892 58.221 31.967 87.26 48.073 16.798 9.311 33.63 18.565 50.175 28.31 4.35 2.564 7.242 1.58 10.409-1.113 14.739-12.537 29.367-25.208 44.189-37.647 14.469-12.143 29.193-23.979 43.669-36.111 11.235-9.42 22.259-19.092 34.203-29.359z"  horiz-adv-x="1024" />

    
    <glyph glyph-name="meishi" unicode="&#58896;" d="M427.890759 640.494345c0 89.705931-60.221793 232.448-134.497103 232.448C219.118345 872.92469 158.896552 730.200276 158.896552 640.494345c0-89.705931 60.221793-162.427586 134.497103-162.427586C367.668966 478.066759 427.890759 550.788414 427.890759 640.494345zM276.497655 473.847172l-4.837517-553.984c0-9.198345 4.148966-16.754759 9.198345-16.754759l25.05269 0c5.067034 0 9.198345 7.556414 9.198345 16.754759l-4.819862 553.984c-5.526069-0.865103-11.140414-1.465379-16.913655-1.465379C287.638069 472.381793 282.023724 472.982069 276.497655 473.847172zM847.36-106.725517l-25.05269 0c-5.067034 0-9.198345 11.29931-9.198345 25.105655l5.455448 934.859034C818.546759 867.045517 822.660414 878.344828 827.745103 878.344828l14.212414 0c5.049379 0 9.198345-11.29931 9.198345-25.105655l5.420138-934.859034C856.576-95.426207 852.427034-106.725517 847.36-106.725517zM703.629241-106.725517l-25.070345 0c-5.067034 0-9.198345 11.29931-9.198345 25.105655l5.420138 934.859034C674.798345 867.045517 678.94731 878.344828 683.99669 878.344828l14.212414 0c5.031724 0 9.18069-11.29931 9.18069-25.105655l5.437793-934.859034C712.809931-95.426207 708.696276-106.725517 703.629241-106.725517z"  horiz-adv-x="1024" />

    
    <glyph glyph-name="shu-copy" unicode="&#58880;" d="M225.958 892.511c13.259 0 26.587 0 39.846 0 11.444-2.233 22.819-5.722 34.333-6.49 123.028-8.165 235.449-48.081 341.171-110.258 23.726-13.887 31.961-29.658 31.891-56.943-0.977-269.503-0.558-539.076-0.698-808.579 0-12.212-1.535-24.424-2.442-38.241-45.848 20.237-85.903 40.893-127.983 55.896-149.406 53.384-303.418 58.618-459.453 41.033-64.898-7.327-78.925 6.071-78.925 70.342-0.070 249.615-0.070 499.23 0 748.844 0 55.478 9.072 68.597 62.316 78.925 52.966 10.328 106.629 17.167 159.943 25.471zM1126.651 892.511c13.259 0 26.587 0 39.846 0 50.872-7.746 102.093-13.608 152.476-23.587 69.155-13.747 72.993-19.958 72.993-89.672 0.070-236.356 0.070-472.642 0-708.998 0-106.35-5.862-108.304-111.514-98.255-185.275 17.655-365.734 0.279-532.726-91.695-6.28-3.489-13.817-4.675-21.633-7.188-1.605 6.629-3.28 10.328-3.28 14.026-0.209 281.506-0.558 562.942 0.558 844.448 0.070 12.561 11.235 30.914 22.331 36.706 57.501 29.658 114.654 62.456 175.854 81.995 66.224 21.005 136.566 28.681 205.093 42.219z"  horiz-adv-x="1396" />

    
    <glyph glyph-name="nvxingzuichun" unicode="&#58905;" d="M213.914426 432.575809s60.528497-15.128475 147.539731 128.626096c0 0 77.554417 104.038371 147.539731-24.587725 0 0 37.832135 73.792367 94.57912 64.320954 0 0 32.156828 5.663144 79.442132-68.10733 0 0 60.054135-103.089648 126.731083-93.159686 0 0-58.165204-204.2855-228.402513-231.240167 0.001216 0.001216-261.03127-80.862783-367.429284 224.147858zM448.466607 390.958515s52.969124 20.808647 124.843369 0c0 0 22.692713-15.128475-61.478435-18.913635-0.001216 0-72.822967-3.783943-63.364934 18.913635z"  horiz-adv-x="1024" />

    
    <glyph glyph-name="ppp" unicode="&#58645;" d="M627.433 241.155l388.204 385.637c6.531 6.531 9.765 17.342 6.234 25.878-3.533 8.526-10.564 15.091-19.797 15.091h-558.421c-12.479 102.459-106.506 196.283-220.726 196.283-122.603 0-222.345-100.251-222.345-222.853s99.742-222.602 222.345-222.602c54.193 0 105.21 19.233 145.631 54.443l208.519-213.611c-0.279-1.428-5.469-2.962-5.469-4.473v-305.557h-115.472c-12.603 0-22.822-10.1-22.822-22.703s10.22-22.703 22.822-22.703h308.1c12.603 0 22.822 10.1 22.822 22.703s-10.22 22.703-22.822 22.703h-147.22v287.95c11.643 1.038 8.86 2.252 10.421 3.811zM616.441 291.812l-330.532 330.544h661.066l-330.532-330.544zM222.923 463.985c-97.435 0-176.699 79.265-176.699 176.705s79.265 177.711 176.699 177.711c89.039 0 162.794-70.301 174.944-150.637h-167.060c-9.233 0-17.551-6.566-21.084-15.091-3.533-8.537-1.583-18.845 4.948-25.376l121.62-121.873c-31.729-26.654-71.382-41.438-113.367-41.438z"  horiz-adv-x="1024" />

    
    <glyph glyph-name="jiantou-you" unicode="&#58625;" d="M723.696 362.897c0.487 0.973 1.338 1.824 1.703 2.797 8.514 17.758 5.717 39.651-9.365 53.882l-343.725 325.116c-18.731 17.758-48.287 16.907-66.045-1.824s-16.907-48.287 1.824-66.045l308.453-291.79-307.236-296.047c-18.609-17.88-19.096-47.436-1.216-66.045 9.122-9.487 21.407-14.352 33.57-14.352 11.676 0 23.353 4.379 32.353 13.136l340.563 328.278c0.608 0.608 0.851 1.581 1.581 2.189 0.487 0.487 0.973 0.851 1.581 1.338 2.797 2.797 4.135 6.203 5.96 9.365v0zM723.696 362.897z"  horiz-adv-x="1024" />

    
    <glyph glyph-name="meituanwaimai" unicode="&#58626;" d="M31.014 556.419c0 0 79.503-30.449 152.24-25.374s174.233 50.747 275.726 45.671 166.62-20.298 230.899-33.83c64.279-13.533 91.344-5.921 98.111 0.846 6.766 6.765 11.841 31.294-18.607 29.603-30.449-1.692-91.344-9.303-87.116 26.219 4.229 35.522 77.812 37.215 130.251 20.298 0 0-8.004 18.988-36.369 21.146-30.145 2.292-46.004 2.928-43.467 22.17 2.985 22.627 25.281 31.859 63.764 10.817 30.61-16.737 40.127-33.301 57.604-57.969 0 0 90.71-21.355 147.075-60.441 0 0 43.228-33.23 0-49.055-44.014-16.114-52.439 7.612-137.017-25.374s-169.157-89.653-185.227-107.414c-16.070-17.762-21.143-25.374-9.303-37.215 11.841-11.841 5.075-22.836-0.846-28.757-6.895-8.434-56.365-45.071-104.032-60.051-46.19-14.516-115.872-27.91-134.48-28.757 0 0 93.882-8.458 104.031-72.737s-13.533-61.743-13.533-61.743-120.099 119.258-213.981 125.179-9.303 101.494 68.508 153.932c0 0-34.374-10.182-63.435-32.986 0 0-34.677 37.215-10.148 111.644 0 0-176.615-10.126-291.795 92.19-7.458 6.228-19.44 33.998 21.146 21.991z"  horiz-adv-x="1024" />

    
    <glyph glyph-name="sports" unicode="&#58884;" d="M1067.867 699.6zM962.133 699.6c0-37.733 20.133-72.667 52.8-91.6s73.067-18.933 105.733 0 52.8 53.733 52.8 91.6-20.133 72.667-52.8 91.6c-32.667 18.933-73.067 18.933-105.733 0s-52.8-53.867-52.8-91.6M1297.067 617.333c-35.867 25.733-65.333 0-65.333 0-83.467-105.333-149.867-73.867-165.6-70.133-15.733 3.733-103.467 51.867-122.133 60.533-18.667 8.8-43.6 25.733-125.867 20.4-93.467-8.133-174.4-93.6-182.933-129.067-8.533-35.467 53.2-70.533 79.467-42.933 90.533 118.267 172.267 70.933 172.267 70.933s-54.667-100.133-114.533-211.867c-97.2-120.267-163.733-70.8-199.867-55.2-36.267 15.467-68.533-26.667-68.533-53.2s58.667-68.133 154.8-68.133 172 80 181.467 91.067c27.867-2 147.333-83.733 162.533-97.6 15.2-13.733 74.667-146.667 79.6-154.933 4.933-8.267 30-27.067 59.733-12.533 29.733 14.667 25.867 52.667 25.867 52.667s-52.8 136.667-86.933 171.067c-34.133 34.4-138.8 100.933-138.8 100.933s74.267 136.267 92.667 167.867c182-46.933 267.733 97.867 267.733 97.867s30.133 36.533-5.6 62.267z"  horiz-adv-x="1821" />

    
    <glyph glyph-name="Artboard-copy" unicode="&#58627;" d="M979.367 255.252l6.664 29.989c-15.555 3.332-87.771 14.45-144.417 12.223 2.227 11.101 2.227 23.324 2.227 34.442 0 47.77-14.45 93.298-39.985 132.194 0 2.227-3.348 105.537-32.232 187.733-1.105 4.454-6.664 6.664-11.101 5.559-65.536-17.782-127.756-63.325-129.967-64.431-38.896 13.328-81.107 19.992-125.546 19.992-44.422 0-86.634-6.664-125.529-19.992-2.211 2.227-64.431 46.649-129.967 64.431-4.437 1.105-9.996-1.105-11.118-5.559-29.989-82.196-32.215-185.507-32.215-187.733-25.551-39.985-39.985-84.423-39.985-132.194 0-12.223 1.105-23.341 2.227-34.442-56.661 2.227-128.861-9.996-144.417-12.223l6.664-29.989c51.102 7.769 122.197 13.328 145.522 12.223 2.227-8.891 5.559-18.887 9.996-27.778-57.767-7.769-126.635-25.551-142.19-31.11 3.332-9.996 7.769-19.992 12.223-29.989 57.767 17.782 125.529 28.883 144.417 29.989 4.437-7.769 9.996-15.555 14.434-22.219-51.102-13.328-122.197-38.879-135.526-46.649 5.559-9.996 11.101-18.887 17.782-28.883 63.309 28.883 126.635 43.317 143.295 45.544 62.22-64.431 157.745-105.537 264.387-105.537 106.659 0 202.199 41.106 264.403 105.537 16.66-2.227 78.864-16.66 143.295-45.544 6.664 8.891 12.223 18.887 17.782 28.883-13.328 7.769-85.545 33.321-136.647 46.649 5.559 7.786 9.996 14.45 14.45 22.219 18.887-1.105 85.528-12.207 143.295-29.989 4.454 9.996 8.891 19.992 12.223 29.989-15.555 4.454-83.318 23.341-139.963 31.11 3.332 8.891 6.664 17.782 9.996 27.778 23.324 1.105 94.436-4.454 145.522-12.223zM646.095 238.592c0-41.123-34.426-75.548-75.532-75.548-27.778 0-53.313 15.555-65.552 38.879-13.328-23.324-37.758-38.879-65.536-38.879-41.106 0-75.532 33.321-75.532 75.548-62.22 0-113.323 49.981-113.323 112.201 0 62.204 49.997 112.201 113.323 112.201 63.309 0 113.29-49.997 113.29-112.201 0-47.787-29.989-89.982-73.305-105.537-17.782-7.786-16.66-33.321-4.437-46.649 10.296-10.263 24.485-16.625 40.161-16.677 25.375 0.001 46.473 16.661 53.137 38.88-12.207 3.332-21.098 12.223-21.098 22.219 0 13.328 14.45 23.324 33.321 23.324 17.782 0 33.321-9.996 33.321-23.324 0-9.996-8.875-18.887-21.098-22.219 7.786-22.219 28.883-38.879 53.313-38.879 15.571 0 30.005 6.664 40.001 16.66 12.223 13.328 14.45 38.879-4.437 46.649-42.212 15.571-73.305 57.783-73.305 105.553 0 62.204 49.981 112.201 113.29 112.201 63.325 0 113.323-48.892 113.323-111.096s-51.102-113.306-113.323-113.306zM363.926 417.434c-9.996 0-18.871-8.875-18.871-18.887v-94.419c0-9.996 8.875-18.887 18.887-18.887 9.996 0 18.871 8.891 18.871 18.887v94.436c0 9.996-8.875 18.871-18.871 18.871zM646.095 417.434c-9.996 0-18.887-8.875-18.887-18.887v-94.419c0-9.996 8.891-18.887 18.887-18.887s18.887 8.891 18.887 18.887v94.436c0 9.996-8.891 18.871-18.887 18.871z"  horiz-adv-x="1024" />

    
    <glyph glyph-name="arrow-right1" unicode="&#58628;" d="M305.866 363.793v0c1.777-3.079 3.079-6.39 5.802-9.112 0.594-0.477 1.064-0.827 1.539-1.303 0.709-0.594 0.946-1.539 1.54-2.128l331.383-319.434c8.757-8.519 20.121-12.781 31.483-12.781 11.836 0 23.79 4.733 32.666 13.964 17.398 18.107 16.924 46.871-1.183 64.265l-298.956 288.071 300.139 283.922c18.225 17.28 19.057 46.04 1.777 64.265-17.281 18.226-46.04 19.057-64.265 1.777l-334.462-316.355c-14.676-13.844-17.399-35.149-9.113-52.429 0.35-0.945 1.182-1.777 1.653-2.722v0zM305.866 363.793z"  horiz-adv-x="1024" />

    
    <glyph glyph-name="wujiaoxing" unicode="&#58639;" d="M510.95620949 864.47546027L658.03112448 532.38591147 1019.17216427 493.69871587 748.7832667 251.19002737999995 823.58340267-104.22035115000006 509.40187534 78.00696034999999 194.49615701-102.97688404999997 270.70741845 252.15057122999997 1.28837859 495.71760355 362.56098304 532.97504483 510.95620949 864.47546027Z"  horiz-adv-x="1024" />

    
    <glyph glyph-name="jiudian" unicode="&#59224;" d="M807.9 6.8H279.3V739c0 12.3 10 22.4 22.4 22.4h420.9c12.3 0 22.4-10 22.4-22.4v-680c0-10.1 8.2-18.2 18.2-18.2 10.1 0 18.2 8.2 18.2 18.2V739c0 32.4-26.4 58.8-58.8 58.8h-421c-32.4 0-58.8-26.4-58.8-58.8v-732.3h-26.6c-10.1 0-18.2-8.2-18.2-18.2s8.2-18.2 18.2-18.2h591.7c10.1 0 18.2 8.2 18.2 18.2s-8.2 18.3-18.2 18.3z m0 0M465.2 674.9c0 16.8-13.6 30.4-30.4 30.4h-65.9c-16.8 0-30.4-13.6-30.4-30.4V609c0-16.8 13.6-30.4 30.4-30.4h65.9c16.8 0 30.4 13.6 30.4 30.4v65.9z m-20.3-66c0-5.6-4.6-10.1-10.1-10.1h-65.9c-5.6 0-10.1 4.6-10.1 10.1v65.9c0 5.6 4.6 10.1 10.1 10.1h65.9c5.6 0 10.1-4.6 10.1-10.1v-65.9z m0 0M465.2 516c0 16.8-13.6 30.4-30.4 30.4h-65.9c-16.8 0-30.4-13.6-30.4-30.4v-65.9c0-16.8 13.6-30.4 30.4-30.4h65.9c16.8 0 30.4 13.6 30.4 30.4V516z m-20.3-66c0-5.6-4.6-10.1-10.1-10.1h-65.9c-5.6 0-10.1 4.6-10.1 10.1v65.9c0 5.6 4.6 10.1 10.1 10.1h65.9c5.6 0 10.1-4.6 10.1-10.1V450z m0 0M684.1 674c0 16.8-13.6 30.4-30.4 30.4h-65.9c-16.8 0-30.4-13.6-30.4-30.4v-65.9c0-16.8 13.6-30.4 30.4-30.4h65.9c16.8 0 30.4 13.6 30.4 30.4V674z m-20.2-65.9c0-5.6-4.6-10.1-10.1-10.1h-65.9c-5.6 0-10.1 4.6-10.1 10.1V674c0 5.6 4.6 10.1 10.1 10.1h65.9c5.6 0 10.1-4.6 10.1-10.1v-65.9z m0 0M684.1 515.1c0 16.8-13.6 30.4-30.4 30.4h-65.9c-16.8 0-30.4-13.6-30.4-30.4v-65.9c0-16.8 13.6-30.4 30.4-30.4h65.9c16.8 0 30.4 13.6 30.4 30.4v65.9z m-20.2-65.9c0-5.6-4.6-10.1-10.1-10.1h-65.9c-5.6 0-10.1 4.6-10.1 10.1v65.9c0 5.6 4.6 10.1 10.1 10.1h65.9c5.6 0 10.1-4.6 10.1-10.1v-65.9z m0 0M434.7 381.2h-65.9c-16.8 0-30.4-13.6-30.4-30.4v-65.9c0-16.8 13.6-30.4 30.4-30.4h65.9c16.8 0 30.4 13.6 30.4 30.4v65.9c0.1 16.8-13.6 30.4-30.4 30.4z m10.2-96.3c0-5.6-4.6-10.1-10.1-10.1h-65.9c-5.6 0-10.1 4.6-10.1 10.1v65.9c0 5.6 4.6 10.1 10.1 10.1h65.9c5.6 0 10.1-4.6 10.1-10.1v-65.9z m0 0M653.7 380.4h-65.9c-16.8 0-30.4-13.6-30.4-30.4v-65.9c0-16.8 13.6-30.4 30.4-30.4h65.9c16.8 0 30.4 13.6 30.4 30.4V350c0 16.8-13.7 30.4-30.4 30.4z m10.2-96.3c0-5.6-4.6-10.1-10.1-10.1h-65.9c-5.6 0-10.1 4.6-10.1 10.1V350c0 5.6 4.6 10.1 10.1 10.1h65.9c5.6 0 10.1-4.6 10.1-10.1v-65.9z m0 0"  horiz-adv-x="1024" />

    
    <glyph glyph-name="minsu" unicode="&#59059;" d="M565.01 370.424c13.317 0 24.307 10.732 24.307 24.307v43.443h2.327c9.31 0 16.938 7.499 16.938 16.937 0 4.396-1.681 8.663-5.043 12.024l-76.282 66.328c-4.138 4.137-9.568 6.464-15.386 6.464-5.69 0-11.249-2.327-15.128-6.206l-76.282-66.327c-3.362-3.362-5.301-7.5-5.301-12.283 0-9.309 7.499-16.937 16.937-16.937h2.327v-43.443c0-13.317 10.732-24.307 24.307-24.307h106.28zM452.784 402.36v46.286h-10.602c-3.62 0-6.465 2.845-6.465 6.465 0 1.68 0.647 3.362 1.681 4.396l66.586 57.923c2.069 2.069 4.654 3.103 7.499 3.103s5.56-1.034 7.628-3.361l66.586-57.794c1.034-1.035 1.68-2.586 1.68-4.396 0-3.62-2.844-6.465-6.464-6.465H570.57v-46.287c0-7.11-5.69-12.541-12.542-12.541h-92.703c-6.723-0.13-12.541 5.689-12.541 12.67zM704 51.2H320c-48.097 0-87.273 39.046-87.273 87.273V322.715h-8.662c-33.746 0-61.027 27.41-61.027 61.026 0 16.808 6.724 32.453 19.006 44.219L457.31 667.41c13.834 13.964 33.616 22.11 54.562 22.11s40.598-8.146 55.466-23.015l275.394-239.321c12.154-12.412 18.23-27.669 18.23-43.572 0-33.745-27.41-61.026-61.026-61.026h-8.662v-184.243c-0.13-48.097-39.176-87.143-87.273-87.143zM511.741 654.48c-11.636 0-22.497-4.524-30.771-12.67L205.576 402.101c-4.655-4.525-7.629-11.248-7.629-18.36 0-14.48 11.766-26.117 26.118-26.117h43.571v-219.151c0-28.833 23.402-52.364 52.364-52.364h383.87c28.833 0 52.364 23.402 52.364 52.364V357.495h43.572c14.48 0 26.117 11.766 26.117 26.117 0 6.853-2.586 13.317-7.37 18.23L543.419 640.905c-9.18 9.05-20.04 13.576-31.677 13.576zM682.537 165.883c13.318 0 24.307 10.731 24.307 24.307v43.442h2.328c9.309 0 16.937 7.5 16.937 16.938 0 4.396-1.68 8.662-5.042 12.024l-76.283 66.327c-4.138 4.138-9.568 6.465-15.386 6.465-5.689 0-11.249-2.327-15.127-6.206l-76.154-66.198c-3.361-3.362-5.3-7.5-5.3-12.283 0-9.31 7.498-16.937 16.937-16.937h2.327v-43.443c0-13.317 10.731-24.307 24.307-24.307l106.15-0.13z m-112.226 31.935v46.287h-10.473c-3.62 0-6.464 2.844-6.464 6.465 0 1.68 0.646 3.361 1.68 4.396l66.586 57.923c2.07 2.069 4.655 3.103 7.5 3.103 2.844 0 5.559-1.034 7.628-3.362l66.586-57.794c1.034-1.034 1.68-2.585 1.68-4.396 0-3.62-2.844-6.464-6.464-6.464h-10.344v-46.287c0-7.111-5.689-12.542-12.541-12.542h-92.703c-6.853 0-12.67 5.56-12.67 12.671z m-120.113-31.935c13.317 0 24.307 10.731 24.307 24.307v43.442h2.327c9.31 0 16.938 7.5 16.938 16.938 0 4.396-1.681 8.662-5.043 12.024l-76.283 66.327c-4.137 4.138-9.567 6.465-15.385 6.465-5.69 0-11.249-2.327-15.128-6.206l-76.283-66.198c-3.361-3.362-5.3-7.5-5.3-12.283 0-9.31 7.498-16.937 16.937-16.937h2.327v-43.443c0-13.317 10.731-24.307 24.307-24.307l106.279-0.13z m-112.226 31.935v46.287H327.37c-3.62 0-6.465 2.844-6.465 6.465 0 1.68 0.647 3.361 1.68 4.396l66.587 57.923c2.068 2.069 4.654 3.103 7.499 3.103s5.56-1.034 7.628-3.362l66.586-57.794c1.034-1.034 1.68-2.585 1.68-4.396 0-3.62-2.844-6.464-6.464-6.464h-10.343v-46.287c0-7.111-5.69-12.542-12.542-12.542h-92.703c-6.852 0-12.541 5.56-12.541 12.671z"  horiz-adv-x="1024" />

    
    <glyph glyph-name="jiazhuangjiancai" unicode="&#58977;" d="M631.776 617.472L329.92 797.088a32.32 32.32 0 0 1-44.736-12.288 34.208 34.208 0 0 1 12.064-46.016l301.856-179.648c15.616-9.28 35.584-3.744 44.608 12.288a34.272 34.272 0 0 1-11.936 46.048z m230.048-240.576l37.664-22.464c49.12-29.12 66.816-104.864 38.88-154.784l-64.352-115.168c-13.056-23.584-45.952-37.76-70.592-44.384-25.472-6.912-53.408-11.424-78.144 3.264l-320.864 190.784c-16.32 9.76-42.432 14.4-51.68-2.4l-6.72-13.024 26.336-14.432c7.808-4.64 15.616-13.568 18.048-22.464 2.432-9.024 5.344-20.96 0.832-28.96l-14.496-25.728v-0.128l-101.664-188.64c-28.16-50.304-73.632-76.032-138.144-37.632-64.352 38.24-65.6 92.928-37.664 142.848l105.088 184.416v0.128l14.528 25.824c9.28 16.576 32.32 20.96 48.736 11.168l25.504-14.944 7.168 12.8c27.936 49.92 87.776 58.72 136.928 29.472l320.736-190.784c16.32-9.76 50.24-0.256 59.52 16.448 0 0 57.152 101.984 65.312 116.64 8.416 10.688 0.64 50.944-15.968 61.344l-37.664 22.464-32.672-58.336c-13.536-24.192-21.216-38.624-47.68-45.76-26.336-7.04-47.68-1.152-71.424 12.896l-490.56 291.904c-49.024 29.12-78.656 84.032-50.72 133.952l101.44 181.28C264.544 882.88 329.536 900.448 377.088 872.256L868.48 580.32a105.28 105.28 0 0 0 48.032-63.872c7.328-27.072-8.64-56.96-22.08-81.28l-32.64-58.304z"  horiz-adv-x="1024" />

    
    <glyph glyph-name="huatong" unicode="&#58883;" d="M186.7 67.8c-0.1-0.2-0.2-0.4-0.2-0.5-0.1-0.2-0.2-0.3-0.3-0.5-10.3-17.9 15.3-52.1 57.3-76.3 42-24.2 84.4-29.3 94.7-11.4 0.1 0.2 0.2 0.3 0.3 0.5 0.1 0.1 0.2 0.3 0.3 0.4 8.2 12.2 32.6 48.6 64.3 96l-165.3 95.4c-25.3-51-44.6-90.3-51.1-103.6z m309.4 360.4c-39 22.5-68.3 55.4-86.5 93.1-36.7-74.7-109.1-222-162-329.6l167.9-97c66.7 99.5 158.1 235.9 204.4 305.1-41.7-3-84.8 5.9-123.8 28.4zM703 785.7c-94.2 54.4-214.6 22-269-72.3-54.4-94.3-22.2-214.8 71.9-269.1 94.2-54.4 214.6-22 269 72.3 54.5 94.3 22.3 214.7-71.9 269.1z"  horiz-adv-x="1024" />

    
    <glyph glyph-name="sousuo" unicode="&#58903;" d="M925.3 5.6L724.8 206.1c32.7 34.3 58.5 73.7 76.7 117 18.7 44.7 28.6 91.9 29.3 140.1 0.7 48.3-7.7 95.4-25.1 139.7-18.1 46.1-45.1 87.2-80.2 122.3s-76.3 62.1-122.3 80.2c-44.4 17.4-91.4 25.9-139.7 25.1-48.3-0.6-95.5-10.5-140.2-29.2-46.2-19.3-87.9-47.3-123.8-83.2s-63.9-77.5-83.2-123.8c-18.7-44.7-28.5-91.8-29.3-140-0.7-48.3 7.7-95.4 25.1-139.7 18.1-46.1 45.1-87.2 80.2-122.3s76.3-62.1 122.3-80.2c42.6-16.7 87.6-25.2 133.9-25.2h5.9c48.2 0.7 95.3 10.6 140.1 29.3 24.4 10.2 47.6 22.9 69.3 37.8l205-205c7.8-7.8 18-11.7 28.3-11.7s20.5 3.9 28.3 11.7c15.5 15.7 15.5 41-0.1 56.6zM453.2 166.9h-4.6c-76 0-146.7 29-199.7 81.9-54 54-83.1 126.5-81.9 204.3 1.2 78.2 32.8 152.2 89.1 208.5 56.3 56.3 130.3 87.9 208.5 89.1h4.6c76 0 146.7-29 199.7-81.9 54-54 83.1-126.5 81.9-204.3-1.2-78.2-32.8-152.2-89.1-208.5s-130.3-87.9-208.5-89.1z"  horiz-adv-x="1024" />

    
    <glyph glyph-name="qinzi" unicode="&#58629;" d="M179.4048 229.52959999999996a123.835733 123.835733 0 1 0-14.4384 247.2448M180.445867 211.5584c-78.08-4.573867-145.3056 55.227733-149.879467 133.307733-4.5568 78.08 55.2448 145.322667 133.341867 149.879467l2.0992-35.925333a105.966933 105.966933 0 0 1-99.4816-111.854934 105.949867 105.949867 0 0 1 111.854933-99.464533l2.065067-35.9424zM846.728533 229.35893299999998a123.835733 123.835733 0 0 1 10.222934 247.4496M845.994667 211.37066700000003l1.450666 35.959466c58.350933-2.4064 107.758933 43.093333 110.1312 101.358934a105.9328 105.9328 0 0 1-101.358933 110.148266l1.501867 35.959467c78.148267-3.2256 139.076267-69.4272 135.850666-147.575467-3.2256-78.114133-69.4272-139.093333-147.575466-135.850666zM513.7408 353.041067m-364.1344 0a364.1344 364.1344 0 1 1 728.2688 0 364.1344 364.1344 0 1 1-728.2688 0ZM513.774933-29.098666999999978c-210.7392 0-382.173867 171.434667-382.173866 382.139734 0 210.688 171.434667 382.122667 382.173866 382.122666 210.705067 0 382.122667-171.4176 382.122667-382.122666-0.017067-210.705067-171.434667-382.139733-382.122667-382.139734z m0 728.251734c-190.890667 0-346.146133-155.272533-346.146133-346.112 0-190.8736 155.272533-346.129067 346.146133-346.129067 190.856533 0 346.129067 155.272533 346.129067 346.129067 0 190.839467-155.2896 346.112-346.129067 346.112zM622.1312 244.6336a102.229333 102.229333 0 0 0-2.935467-5.7344c-20.1728-36.693333-57.582933-59.835733-98.935466-59.835733-43.5712 0-82.705067 25.736533-101.888 65.6384a14.609067 14.609067 0 0 1-19.985067 6.929066c-7.355733-3.84-10.308267-13.1584-6.638933-20.8384 24.183467-50.295467 73.557333-82.773333 128.494933-82.773333 52.1216 0 99.3792 29.166933 124.7744 75.4688 1.365333 2.474667 2.6112 4.898133 3.7888 7.338667 3.652267 7.697067 0.648533 16.9984-6.724267 20.804266a14.574933 14.574933 0 0 1-19.950933-6.997333M566.6304 766.071467a39.5776 39.5776 0 0 0 27.8016-12.219734c15.957333-16.418133 16.110933-43.2128 0.341333-59.835733a39.424 39.424 0 0 0-57.3952-0.3584 14.4384 14.4384 0 0 1-21.0432-0.136533 15.957333 15.957333 0 0 1 0.119467-21.947734 68.352 68.352 0 0 1 99.515733 0.6144c27.3408 28.808533 27.0848 75.264-0.5632 103.7312a68.727467 68.727467 0 0 1-48.2304 21.162667c-8.226133 0.1536-15.0016-6.673067-15.1552-15.240533-0.1536-8.5504 6.4-15.616 14.609067-15.7696M682.325333 403.165867c5.512533-5.632 8.925867-13.482667 8.925867-22.152534 0-17.134933-13.329067-31.044267-29.764267-31.044266-16.452267 0-29.781333 13.892267-29.781333 31.044266s13.329067 31.044267 29.781333 31.044267c8.123733 0 15.479467-3.413333 20.8384-8.891733M385.3312 403.165867c5.512533-5.632 8.942933-13.482667 8.942933-22.152534 0-17.134933-13.346133-31.044267-29.7984-31.044266-16.418133 0-29.764267 13.892267-29.764266 31.044266s13.312 31.044267 29.764266 31.044267c8.1408 0 15.479467-3.413333 20.855467-8.891733M393.489067 465.2544z"  horiz-adv-x="1024" />

    
    <glyph glyph-name="feiji" unicode="&#58939;" d="M755.2 468.906667l48.213333-433.92-46.506666-52.48-174.933334 327.68 173.226667 158.72z m185.173333 321.706666l-33.28 32.426667s-61.44 20.053333-104.106666-23.466667c-71.68-72.96-168.106667-171.093333-168.106667-171.093333L162.133333 697.173333l-59.306666-54.186666 350.293333-203.093334-128.426667-125.866666-215.466666-14.506667-41.386667-14.933333 220.586667-122.026667 117.76-221.866667 16.213333 41.813334 13.653333 206.506666S797.866667 557.226667 939.946667 701.44c34.986667 34.986667 0.426667 89.173333 0.426666 89.173333z"  horiz-adv-x="1024" />

    
    <glyph glyph-name="dingwei" unicode="&#58897;" d="M512 896C741.336615 896 925.538462 716.8 925.538462 493.725538 925.538462 270.572308 722.510769-7.325538 512-128 297.747692-29.262769 98.461538 270.611692 98.461538 493.725538 98.461538 716.8 282.663385 896 512 896z m0-196.923077A177.742769 177.742769 0 0 1 334.769231 521.846154c0-97.476923 79.753846-177.230769 177.230769-177.230769S689.230769 424.369231 689.230769 521.846154 609.476923 699.076923 512 699.076923z"  horiz-adv-x="1024" />

    
    <glyph glyph-name="yiliao" unicode="&#58904;" d="M894.6 643.2h-104.8V791.4C789.8 849.2 743.2 896 686 896H338.2c-57.2 0-103.8-46.8-103.8-104.6v-148.2H129.4c-27.6 0-54-11-73.4-30.6-19.4-19.6-30.4-46.2-30.4-74v-561.8c0-26.2 9.8-51.4 27.2-70.6L78-114c15.6-9 33.4-13.8 51.6-13.8h765c18.2 0 36 4.8 51.6 13.8l25.2 20.4c17.4 19.2 27.2 44.4 27.2 70.6V538.4c0 27.8-11 54.4-30.4 74-19.8 19.8-46.2 30.8-73.6 30.8zM313.6 766.4c0 27.4 22.2 49.8 49.6 49.8h297.8c27.4 0 49.6-22.4 49.6-49.8v-123.2H313.6V766.4z m407.2-542.6h-181.6v-156c0-15.2-12.2-27.4-27.2-27.4s-27.2 12.2-27.2 27.4v156h-181.6c-9.6 0-18.6 5.2-23.6 13.6-4.8 8.4-4.8 19 0 27.4 4.8 8.4 13.8 13.6 23.6 13.6h181.6v168.6c0 15.2 12.2 27.4 27.2 27.4s27.2-12.2 27.2-27.4v-168.6h181.6c9.6 0 18.6-5.2 23.6-13.6 4.8-8.4 4.8-19 0-27.4-5-8.4-14-13.6-23.6-13.6z"  horiz-adv-x="1024" />

    
    <glyph glyph-name="shenghuofuwu" unicode="&#59012;" d="M835.797333 453.461333l-69.888 63.104h0.128V652.714667c0 25.088-20.096 45.397333-44.885333 45.397333-24.832 0-44.928-20.309333-44.928-45.397333v-55.168l-121.898667 110.08a59.434667 59.434667 0 0 1-84.693333 0l-281.429333-254.165334a60.970667 60.970667 0 0 1 0-85.589333l68.821333-63.146667v-201.557333c0-33.408 26.794667-60.501333 59.861333-60.501333h389.290667c33.066667 0 59.861333 27.093333 59.861333 60.501333v201.6l69.76 63.104a61.013333 61.013333 0 0 1 0 85.589333z m-219.477333-12.544c16.554667 0 29.952-13.568 29.952-30.293333 0-16.682667-13.397333-30.250667-29.952-30.250667a30.122667 30.122667 0 0 0-29.952 30.293334c0 16.682667 13.44 30.250667 29.952 30.250666z m-194.602667 0c16.512 0 29.952-13.568 29.952-30.293333 0-16.682667-13.44-30.250667-29.952-30.250667a30.122667 30.122667 0 0 0-29.952 30.293334c0 16.682667 13.397333 30.250667 29.952 30.250666z m266.581334-167.594666c-14.762667-85.248-88.192-150.144-176.768-150.144-88.362667 0-161.664 64.554667-176.64 149.546666a17.664 17.664 0 0 0-0.341334 2.133334c0 5.888 6.741333 10.666667 15.061334 10.666666 8.064 0 14.634667-4.48 15.018666-10.112l0.213334-0.938666c13.866667-69.034667 74.24-121.045333 146.688-121.045334 72.405333 0 132.778667 51.968 146.688 120.96 0 0.170667 1.450667 7.168 6.912 9.514667a20.864 20.864 0 0 0 8.192 1.706667c8.362667 0 15.957333-3.328 14.933333-12.288z"  horiz-adv-x="1024" />

    


  </font>
</defs>
</svg>
