<?xml version="1.0" standalone="no"?><!DOCTYPE svg PUBLIC "-//W3C//DTD SVG 1.1//EN" "http://www.w3.org/Graphics/SVG/1.1/DTD/svg11.dtd"><svg t="1551316486069" class="icon" style="" viewBox="0 0 1215 1024" version="1.1" xmlns="http://www.w3.org/2000/svg" p-id="1863" xmlns:xlink="http://www.w3.org/1999/xlink" width="18.984375" height="16"><defs><style type="text/css"></style></defs><path d="M1082.29914 21.572102H140.727777c-64.219036 0-116.479882 51.100546-116.479881 113.922487v753.223938c0 62.821941 52.260845 113.946166 116.479881 113.946166h941.571363c64.219036 0 116.456202-51.100546 116.456202-113.946166V135.494589c0-62.821941-52.237166-113.922486-116.456202-113.922487z m54.889279 867.146425c0 28.889094-24.626769 52.379243-54.889279 52.379244H140.727777c-30.28619 0-54.912959-23.490149-54.912959-52.379244V135.494589c0-28.865415 24.650449-52.355564 54.912959-52.355564h941.571363c30.26251 0 54.889279 23.490149 54.889279 52.355564v753.223938z" fill="#d81e06" p-id="1864"></path><path d="M529.309777 569.091481c32.725187 0 59.341042-26.26066 59.341042-58.512256V274.919989c0-32.251596-26.615854-58.488576-59.341042-58.488577H237.861437c-32.725187 0-59.364721 26.236981-59.364721 58.488577v235.635556c0 32.251596 26.639534 58.512256 59.364721 58.512256h291.44834zM240.063639 277.998335h287.020257v229.502544H240.063639V277.998335zM676.857275 260.357044h361.800388v61.566922H676.857275zM676.857275 417.210619h183.42207v61.566922h-183.42207zM209.280178 746.191102h829.377485v61.566922H209.280178z" fill="#d81e06" p-id="1865"></path></svg>